<svg width="43" height="14" viewBox="0 0 43 14" fill="none" xmlns="http://www.w3.org/2000/svg">
<path d="M7.41406 9.89844C7.41406 10.9141 7.04688 11.7109 6.3125 12.2891C5.57812 12.8672 4.5651 13.1562 3.27344 13.1562C1.98177 13.1562 0.924479 12.9557 0.101562 12.5547V10.7891C0.622396 11.0339 1.17448 11.2266 1.75781 11.3672C2.34635 11.5078 2.89323 11.5781 3.39844 11.5781C4.13802 11.5781 4.68229 11.4375 5.03125 11.1562C5.38542 10.875 5.5625 10.4974 5.5625 10.0234C5.5625 9.59635 5.40104 9.23438 5.07812 8.9375C4.75521 8.64062 4.08854 8.28906 3.07812 7.88281C2.03646 7.46094 1.30208 6.97917 0.875 6.4375C0.447917 5.89583 0.234375 5.24479 0.234375 4.48438C0.234375 3.53125 0.572917 2.78125 1.25 2.23438C1.92708 1.6875 2.83594 1.41406 3.97656 1.41406C5.07031 1.41406 6.15885 1.65365 7.24219 2.13281L6.64844 3.65625C5.63281 3.22917 4.72656 3.01562 3.92969 3.01562C3.32552 3.01562 2.86719 3.14844 2.55469 3.41406C2.24219 3.67448 2.08594 4.02083 2.08594 4.45312C2.08594 4.75 2.14844 5.00521 2.27344 5.21875C2.39844 5.42708 2.60417 5.625 2.89062 5.8125C3.17708 6 3.69271 6.2474 4.4375 6.55469C5.27604 6.90365 5.89062 7.22917 6.28125 7.53125C6.67188 7.83333 6.95833 8.17448 7.14062 8.55469C7.32292 8.9349 7.41406 9.38281 7.41406 9.89844ZM17.0312 13H15.1875V7.6875C15.1875 7.02083 15.0521 6.52344 14.7812 6.19531C14.5156 5.86719 14.0911 5.70312 13.5078 5.70312C12.737 5.70312 12.1693 5.9349 11.8047 6.39844C11.4453 6.85677 11.2656 7.6276 11.2656 8.71094V13H9.42969V0.84375H11.2656V3.92969C11.2656 4.42448 11.2344 4.95312 11.1719 5.51562H11.2891C11.5391 5.09896 11.8854 4.77604 12.3281 4.54688C12.776 4.31771 13.2969 4.20312 13.8906 4.20312C15.9844 4.20312 17.0312 5.25781 17.0312 7.36719V13ZM24.9922 13L24.625 11.7969H24.5625C24.1458 12.3229 23.7266 12.6823 23.3047 12.875C22.8828 13.0625 22.3411 13.1562 21.6797 13.1562C20.8307 13.1562 20.1667 12.9271 19.6875 12.4688C19.2135 12.0104 18.9766 11.362 18.9766 10.5234C18.9766 9.63281 19.3073 8.96094 19.9688 8.50781C20.6302 8.05469 21.638 7.80729 22.9922 7.76562L24.4844 7.71875V7.25781C24.4844 6.70573 24.3542 6.29427 24.0938 6.02344C23.8385 5.7474 23.4401 5.60938 22.8984 5.60938C22.4557 5.60938 22.0312 5.67448 21.625 5.80469C21.2188 5.9349 20.8281 6.08854 20.4531 6.26562L19.8594 4.95312C20.3281 4.70833 20.8411 4.52344 21.3984 4.39844C21.9557 4.26823 22.4818 4.20312 22.9766 4.20312C24.0755 4.20312 24.9036 4.44271 25.4609 4.92188C26.0234 5.40104 26.3047 6.15365 26.3047 7.17969V13H24.9922ZM22.2578 11.75C22.9245 11.75 23.4583 11.5651 23.8594 11.1953C24.2656 10.8203 24.4688 10.2969 24.4688 9.625V8.875L23.3594 8.92188C22.4948 8.95312 21.8646 9.09896 21.4688 9.35938C21.0781 9.61458 20.8828 10.0078 20.8828 10.5391C20.8828 10.9245 20.9974 11.224 21.2266 11.4375C21.4557 11.6458 21.7995 11.75 22.2578 11.75ZM33.25 4.20312C33.6198 4.20312 33.9245 4.22917 34.1641 4.28125L33.9844 5.99219C33.724 5.92969 33.4531 5.89844 33.1719 5.89844C32.4375 5.89844 31.8411 6.13802 31.3828 6.61719C30.9297 7.09635 30.7031 7.71875 30.7031 8.48438V13H28.8672V4.35938H30.3047L30.5469 5.88281H30.6406C30.9271 5.36719 31.2995 4.95833 31.7578 4.65625C32.2214 4.35417 32.7188 4.20312 33.25 4.20312ZM39.5469 13.1562C38.2031 13.1562 37.151 12.7656 36.3906 11.9844C35.6354 11.1979 35.2578 10.1172 35.2578 8.74219C35.2578 7.33073 35.6094 6.22135 36.3125 5.41406C37.0156 4.60677 37.9818 4.20312 39.2109 4.20312C40.3516 4.20312 41.2526 4.54948 41.9141 5.24219C42.5755 5.9349 42.9062 6.88802 42.9062 8.10156V9.09375H37.1484C37.1745 9.93229 37.401 10.5781 37.8281 11.0312C38.2552 11.4792 38.8568 11.7031 39.6328 11.7031C40.1432 11.7031 40.6172 11.6562 41.0547 11.5625C41.4974 11.4635 41.9714 11.3021 42.4766 11.0781V12.5703C42.0286 12.7839 41.5755 12.9349 41.1172 13.0234C40.6589 13.112 40.1354 13.1562 39.5469 13.1562ZM39.2109 5.59375C38.6276 5.59375 38.1589 5.77865 37.8047 6.14844C37.4557 6.51823 37.2474 7.05729 37.1797 7.76562H41.1016C41.0911 7.05208 40.9193 6.51302 40.5859 6.14844C40.2526 5.77865 39.7943 5.59375 39.2109 5.59375Z" fill="#5A7184"/>
</svg>
