<svg width="54" height="56" viewBox="0 0 54 56" fill="none" xmlns="http://www.w3.org/2000/svg">
<rect width="54" height="56" rx="27" fill="#1565D8"/>
<path d="M25.2233 23.0938C24.9108 23.4062 24.942 23.875 25.2233 24.1875L29.0045 27.75H20.0358C19.5983 27.75 19.2858 28.0938 19.2858 28.5V29.5C19.2858 29.9375 19.5983 30.25 20.0358 30.25H29.0045L25.2233 33.8438C24.942 34.1562 24.942 34.625 25.2233 34.9375L25.9108 35.625C26.2233 35.9062 26.692 35.9062 26.9733 35.625L33.067 29.5312C33.3483 29.25 33.3483 28.7812 33.067 28.4688L26.9733 22.4062C26.692 22.125 26.2233 22.125 25.9108 22.4062L25.2233 23.0938Z" fill="white"/>
</svg>
